<?xml version="1.0" standalone="no"?>
<!DOCTYPE svg PUBLIC "-//W3C//DTD SVG 20010904//EN"
 "http://www.w3.org/TR/2001/REC-SVG-20010904/DTD/svg10.dtd">
<svg version="1.0" xmlns="http://www.w3.org/2000/svg"
 width="500.000000pt" height="500.000000pt" viewBox="0 0 500.000000 500.000000"
 preserveAspectRatio="xMidYMid meet">

<g transform="translate(0.000000,500.000000) scale(0.100000,-0.100000)"
fill="#000000" stroke="none">
<path d="M2253 4484 c-573 -69 -1103 -400 -1426 -889 -79 -120 -178 -324 -223
-459 -30 -93 -84 -313 -84 -346 0 -6 18 -10 40 -10 37 0 39 2 46 38 81 476
350 921 734 1212 255 193 563 322 886 372 105 16 447 16 549 -1 334 -53 629
-177 887 -372 364 -277 629 -699 719 -1147 l22 -112 39 0 c46 0 45 -5 14 143
-64 303 -208 605 -403 847 -77 96 -245 258 -345 333 -420 315 -936 454 -1455
391z"/>
<path d="M2604 4146 c-2 -6 4 -60 14 -121 16 -105 18 -110 43 -113 22 -3 29 4
49 49 l25 52 8 -39 c4 -21 10 -49 13 -61 3 -16 12 -23 28 -23 20 0 31 16 74
108 50 108 52 121 9 122 -11 0 -26 -19 -44 -57 l-26 -58 -9 62 c-14 93 -49 96
-83 8 -19 -50 -35 -51 -35 -2 0 53 -10 75 -37 80 -13 2 -26 -1 -29 -7z"/>
<path d="M2193 4120 c-12 -5 -29 -20 -39 -35 -14 -22 -15 -33 -4 -88 15 -80
39 -107 96 -107 51 0 104 38 104 75 0 50 -23 127 -43 145 -22 21 -75 26 -114
10z m76 -54 c6 -7 12 -38 14 -67 2 -52 1 -54 -25 -57 -30 -4 -42 12 -52 71 -8
42 5 67 34 67 10 0 23 -6 29 -14z"/>
<path d="M1773 3969 c-76 -43 -78 -45 -63 -69 7 -12 15 -13 40 -3 l31 11 39
-79 c22 -43 44 -79 48 -79 5 0 16 6 26 13 17 12 16 18 -23 95 l-41 82 25 12
c26 12 29 17 19 42 -9 23 -20 20 -101 -25z"/>
<path d="M3150 3903 c-47 -42 -86 -80 -88 -84 -2 -4 6 -13 18 -19 16 -9 25 -8
36 1 23 19 94 -17 94 -47 0 -20 35 -53 45 -42 1 2 10 55 19 118 15 114 15 115
-5 133 -12 9 -24 17 -28 17 -3 -1 -44 -35 -91 -77z m74 -41 c-6 -28 -9 -30
-26 -21 -20 11 -19 11 3 35 27 29 31 27 23 -14z"/>
<path d="M3511 3665 c-45 -43 -81 -84 -81 -91 0 -6 7 -17 15 -24 12 -10 22 -6
56 25 22 20 43 34 45 32 3 -3 -2 -33 -11 -67 -15 -58 -15 -63 1 -81 16 -18 20
-16 96 53 44 40 83 78 85 86 3 7 -1 21 -10 29 -14 14 -20 12 -61 -22 -25 -21
-46 -34 -46 -30 0 4 7 34 16 68 15 58 15 61 -5 80 l-20 20 -80 -78z"/>
<path d="M1419 3715 c-37 -20 -62 -76 -49 -109 16 -44 53 -50 117 -22 45 21
55 23 60 11 8 -23 -17 -47 -44 -42 -14 2 -29 -3 -40 -15 -15 -17 -15 -20 -1
-35 25 -25 80 -9 117 33 33 36 38 62 20 95 -19 36 -53 41 -111 14 -49 -23 -68
-24 -68 -5 0 17 33 41 48 35 8 -3 23 2 33 11 40 36 -27 59 -82 29z"/>
<path d="M2355 3489 c-344 -50 -638 -278 -776 -603 -91 -214 -102 -479 -28
-699 109 -326 370 -567 714 -660 115 -31 355 -31 470 0 276 75 491 236 633
478 58 99 110 261 124 389 44 392 -160 785 -509 981 -80 46 -248 101 -346 114
-90 13 -196 12 -282 0z m370 -94 c50 -12 121 -36 158 -53 56 -26 67 -35 67
-56 0 -13 3 -31 6 -40 5 -14 -3 -16 -55 -16 -33 0 -105 -5 -160 -11 -95 -10
-103 -10 -134 10 -52 32 -114 52 -202 65 l-80 12 -8 48 c-4 27 -6 50 -4 52 2
2 35 8 73 13 95 13 232 4 339 -24z m-431 -61 c6 -41 5 -42 -43 -73 -45 -29
-104 -87 -173 -169 -14 -18 -35 -32 -46 -32 -36 0 -136 -40 -200 -80 -35 -22
-65 -40 -66 -40 -2 0 -9 20 -16 45 -12 43 -11 45 19 84 58 73 189 186 268 231
95 55 235 105 244 87 3 -7 9 -31 13 -53z m794 -259 l122 -124 0 -103 c0 -57
-3 -126 -6 -154 l-6 -51 -92 -6 c-50 -4 -108 -12 -129 -17 l-38 -11 -126 118
c-69 65 -141 132 -160 148 l-34 30 16 70 c8 39 15 100 15 137 l0 67 58 6 c31
3 64 8 72 9 8 2 53 4 101 5 l85 1 122 -125z m-993 -102 c16 -31 53 -83 83
-114 l54 -59 -22 -30 c-55 -77 -100 -214 -100 -304 l0 -43 -85 -21 c-47 -11
-111 -33 -143 -47 l-57 -26 -27 33 c-16 18 -52 68 -82 111 l-54 78 19 87 c34
155 68 240 114 279 45 39 97 68 170 94 84 30 96 27 130 -38z m1208 -43 c37 0
100 -188 117 -350 10 -97 -2 -265 -21 -284 -5 -6 -24 -5 -49 3 -38 11 -40 13
-40 54 0 59 -25 159 -54 216 -24 47 -25 52 -19 210 6 159 7 162 27 157 12 -3
29 -6 39 -6z m-659 -87 c28 -26 99 -93 158 -148 l107 -102 -29 -74 c-16 -41
-39 -115 -51 -164 -12 -50 -28 -98 -36 -107 -40 -46 -252 -128 -331 -128 -18
0 -61 35 -163 135 -77 74 -144 135 -149 135 -18 0 -11 135 11 206 21 69 75
170 104 194 14 11 285 97 314 99 8 1 37 -20 65 -46z m-963 -375 c19 -29 55
-78 80 -108 42 -51 47 -62 58 -140 14 -91 40 -171 78 -237 l25 -43 -38 -45
c-36 -44 -37 -45 -57 -28 -42 38 -120 151 -158 229 -47 97 -89 254 -89 333 0
50 3 58 28 73 15 9 30 17 33 17 4 1 22 -23 40 -51z m1665 -199 c24 -6 44 -16
44 -21 0 -23 -56 -149 -99 -221 -51 -88 -157 -208 -231 -262 -41 -30 -55 -35
-80 -30 -36 8 -36 9 -10 45 31 43 87 166 101 221 11 42 22 58 62 90 56 44 115
109 142 157 11 17 21 32 23 32 2 0 23 -5 48 -11z m-474 -112 c40 -40 84 -72
121 -87 31 -14 57 -30 57 -37 0 -26 -45 -131 -85 -198 -29 -48 -55 -77 -81
-92 -43 -25 -169 -66 -253 -82 -50 -11 -57 -9 -109 16 -31 16 -84 54 -118 86
l-62 58 34 74 c19 41 40 100 47 132 l13 57 85 17 c102 20 180 49 239 88 25 16
46 30 46 30 1 1 30 -27 66 -62z m-750 -315 c36 -12 94 -24 129 -28 54 -6 66
-11 92 -40 16 -19 63 -57 105 -85 43 -28 78 -52 80 -54 1 -1 -3 -14 -9 -29
-11 -24 -17 -26 -70 -26 -172 0 -404 88 -534 204 l-47 41 37 47 37 47 57 -28
c31 -16 86 -38 123 -49z"/>
<path d="M1120 3324 c-33 -61 -39 -78 -28 -85 54 -36 182 -99 192 -96 6 3 28
37 50 77 31 58 36 74 25 81 -27 17 -39 9 -64 -41 -23 -45 -28 -49 -45 -40 -20
11 -20 11 1 51 11 23 18 47 15 55 -10 26 -35 14 -56 -26 -19 -37 -38 -49 -53
-34 -3 4 5 26 18 49 30 50 31 61 6 75 -17 9 -24 1 -61 -66z"/>
<path d="M3871 3351 c-8 -5 -11 -16 -8 -25 9 -23 -101 -78 -125 -63 -12 8 -21
7 -32 -2 -15 -12 -14 -18 10 -60 15 -25 28 -48 30 -49 1 -2 12 -1 24 3 15 5
19 12 15 25 -5 16 6 25 54 50 34 17 61 26 61 20 0 -15 40 -12 46 4 6 15 -42
106 -54 106 -4 0 -13 -4 -21 -9z"/>
<path d="M957 2884 c-9 -48 -16 -89 -14 -90 1 -1 12 -5 25 -8 19 -6 23 -3 28
23 7 36 10 36 100 15 37 -8 73 -13 80 -10 18 7 18 56 0 56 -7 0 -46 7 -85 16
-72 16 -72 17 -69 48 3 27 0 31 -22 34 -25 3 -27 0 -43 -84z"/>
<path d="M3920 2949 c-46 -11 -86 -21 -87 -23 -2 -2 5 -41 15 -87 18 -83 30
-100 59 -81 10 6 9 20 -1 65 -13 53 -12 57 6 63 25 7 24 8 35 -46 6 -31 14
-46 27 -48 29 -6 36 10 24 56 -8 32 -8 46 1 55 16 16 28 -5 37 -60 5 -36 10
-43 28 -43 13 0 25 2 28 5 3 3 -2 40 -11 83 -17 74 -18 77 -47 79 -16 1 -67
-7 -114 -18z"/>
<path d="M961 2602 c-24 -51 -43 -62 -107 -62 -13 0 -24 -2 -24 -5 0 -3 18
-21 40 -41 25 -23 39 -43 36 -53 -3 -9 -8 -33 -12 -55 l-7 -39 51 28 50 27 47
-27 46 -28 -6 60 c-7 59 -7 59 29 91 42 37 44 42 12 42 -64 0 -82 11 -107 62
l-25 50 -23 -50z"/>
<path d="M3991 2604 c-24 -55 -40 -64 -115 -64 l-31 0 44 -37 43 -36 -7 -60
-6 -60 46 28 47 27 50 -27 51 -28 -7 39 c-4 22 -9 46 -12 55 -3 10 11 30 36
53 22 20 40 38 40 41 0 3 -15 5 -32 6 -62 2 -78 12 -102 64 l-23 50 -22 -51z"/>
<path d="M350 2250 c0 -18 7 -20 83 -20 l83 0 23 -117 c60 -309 208 -624 408
-873 125 -155 325 -330 501 -439 919 -571 2127 -303 2725 604 132 201 242 470
288 708 l23 117 83 0 c76 0 83 2 83 20 0 20 -7 20 -470 20 l-470 0 0 -26 c0
-15 -16 -74 -35 -131 -143 -428 -490 -735 -935 -828 -117 -25 -363 -25 -480 0
-376 78 -690 315 -862 651 -47 92 -108 266 -108 309 l0 25 -470 0 c-463 0
-470 0 -470 -20z m370 -112 c106 -437 395 -839 790 -1098 222 -145 433 -228
700 -271 107 -18 155 -20 335 -16 222 5 277 13 467 66 611 173 1120 703 1268
1319 l22 92 50 0 50 0 -7 -42 c-14 -90 -58 -257 -92 -348 -337 -906 -1284
-1423 -2222 -1214 -405 91 -780 319 -1049 639 -219 261 -376 600 -427 923 l-7
42 50 0 50 0 22 -92z m599 -294 c39 -49 26 -86 -40 -120 -41 -21 -53 -23 -72
-13 -31 17 -46 40 -47 70 0 31 16 52 55 73 46 23 80 20 104 -10z m2541 -26 c0
-5 0 -12 0 -18 0 -5 -9 -10 -20 -10 -27 0 -52 -49 -37 -72 9 -13 8 -21 -1 -30
-11 -11 -24 -1 -72 52 -61 67 -67 79 -50 96 11 11 181 -6 180 -18z m-2426
-166 c30 -44 33 -68 9 -94 -23 -26 -69 -23 -95 7 -20 23 -23 24 -39 9 -19 -17
-39 -12 -39 11 0 12 115 105 131 105 3 0 18 -17 33 -38z m2180 32 c8 -3 12
-12 10 -19 -7 -17 54 -60 82 -57 35 3 38 -16 9 -54 -21 -27 -30 -33 -40 -24
-8 6 -12 17 -10 23 7 17 -69 69 -82 56 -7 -7 -14 -5 -21 3 -8 10 -6 22 10 46
22 35 20 34 42 26z m6 -245 c0 -21 -31 -30 -67 -20 -63 18 -70 14 -35 -22 30
-30 31 -35 17 -47 -14 -12 -24 -6 -77 47 -34 34 -58 66 -54 72 9 13 50 14 94
2 17 -5 32 -8 32 -5 0 2 -14 17 -32 33 -28 25 -30 31 -19 45 12 14 20 9 77
-42 35 -31 64 -60 64 -63z m-2041 46 c17 -20 31 -45 31 -57 0 -29 -28 -58 -55
-58 -18 0 -24 -7 -30 -36 -6 -34 -7 -35 -24 -20 -12 11 -16 26 -13 48 6 44 20
59 47 52 31 -8 41 13 19 37 -17 19 -18 19 -65 -27 -43 -43 -69 -50 -69 -21 0
15 101 117 116 117 7 0 26 -16 43 -35z m1799 -164 c62 -41 70 -50 57 -61 -8
-7 -22 -10 -30 -6 -24 9 -67 -23 -60 -44 6 -20 -24 -37 -35 -20 -13 22 -42
150 -36 165 9 24 26 18 104 -34z m-1629 24 c50 -26 54 -64 11 -123 -36 -51
-76 -57 -115 -17 -31 30 -32 57 -3 98 40 60 59 67 107 42z m1425 -82 c2 -10 7
-43 11 -73 4 -30 9 -62 11 -71 9 -32 -28 -31 -60 0 l-31 31 3 -41 c7 -71 -12
-72 -79 -1 -63 66 -69 79 -43 89 12 4 26 -5 46 -28 l30 -34 -6 47 c-7 59 8 66
53 24 l34 -31 -6 47 c-5 32 -3 48 6 51 21 9 26 7 31 -10z m-1210 -44 c25 -20
35 -53 18 -63 -11 -7 -27 6 -35 27 -4 10 -17 17 -31 17 -32 0 -63 -66 -41 -89
8 -8 21 -11 31 -7 16 6 16 8 1 19 -11 8 -14 17 -8 26 8 12 14 12 40 1 17 -7
31 -18 31 -25 0 -22 -41 -65 -61 -65 -33 0 -78 29 -84 53 -6 21 16 89 37 115
16 19 72 14 102 -9z m203 -70 c22 -8 43 -37 43 -59 0 -6 -12 -22 -26 -37 -22
-22 -24 -29 -15 -54 9 -26 8 -29 -10 -29 -13 0 -25 11 -34 34 -16 38 -9 71 15
71 24 0 18 40 -6 43 -18 3 -24 -6 -38 -57 -13 -48 -21 -61 -37 -61 -21 0 -24
13 -9 56 5 16 14 48 20 72 11 42 12 43 43 36 18 -3 42 -10 54 -15z m738 -22
c8 -13 18 -44 21 -69 6 -41 4 -47 -21 -66 -15 -12 -38 -22 -51 -22 -22 0 -64
31 -64 48 0 4 -4 24 -9 44 -7 31 -5 42 11 63 27 34 91 35 113 2z m-527 -16
c12 -7 51 -136 52 -168 0 -20 -28 -15 -40 7 -11 21 -64 28 -75 10 -6 -10 -45
-14 -45 -5 0 13 81 165 88 165 4 0 13 -4 20 -9z m306 -18 c3 -16 6 -55 8 -88
2 -54 0 -60 -18 -60 -15 0 -20 9 -24 45 -5 44 -5 44 -17 17 -15 -33 -27 -34
-47 -5 -15 22 -16 21 -16 -25 0 -40 -3 -47 -20 -47 -14 0 -20 7 -20 23 0 12
-3 52 -7 90 -6 64 -5 67 15 67 13 0 31 -14 47 -37 14 -21 25 -33 25 -28 0 20
40 75 54 75 8 0 17 -12 20 -27z"/>
<path d="M1233 1813 c-64 -32 -31 -80 34 -49 26 12 34 22 31 39 -4 27 -24 31
-65 10z"/>
<path d="M3745 1780 c14 -16 20 -17 27 -8 13 22 9 28 -19 28 -26 0 -26 0 -8
-20z"/>
<path d="M1375 1624 c-18 -13 -18 -15 -3 -30 9 -9 24 -14 32 -11 19 8 20 18 4
40 -12 14 -15 14 -33 1z"/>
<path d="M3317 1299 c7 -24 15 -30 32 -20 9 6 6 12 -12 24 -24 15 -25 15 -20
-4z"/>
<path d="M1685 1289 c-30 -36 -29 -63 1 -67 30 -4 72 61 54 83 -18 21 -25 19
-55 -16z"/>
<path d="M2831 1111 c-11 -7 -12 -19 -5 -53 8 -37 13 -43 34 -43 23 0 25 3 23
39 -3 36 -17 66 -32 66 -3 0 -12 -4 -20 -9z"/>
<path d="M2346 1034 c-9 -22 -8 -24 9 -24 8 0 15 9 15 20 0 24 -15 27 -24 4z"/>
</g>
</svg>
